HIERARCHY
ROOT Hips
{
  OFFSET 0.0000 88.6893 0.0000
  CHANNELS 6 Xposition Yposition Zposition Yrotation Xrotation Zrotation
  JOINT Spine
  {
    OFFSET 0.0000 12.5154 0.0000
    CHANNELS 3 Yrotation Xrotation Zrotation
    JOINT Spine1
    {
      OFFSET 0.0000 12.2809 0.0000
      CHANNELS 3 Yrotation Xrotation Zrotation
      JOINT Spine2
      {
        OFFSET 0.0000 11.6295 0.0000
        CHANNELS 3 Yrotation Xrotation Zrotation
        JOINT LeftShoulder
        {
          OFFSET 6.6423 9.7323 0.0000
          CHANNELS 3 Yrotation Xrotation Zrotation
          JOINT LeftArm
          {
            OFFSET 0.0000 12.6995 0.0000
            CHANNELS 3 Yrotation Xrotation Zrotation
            JOINT LeftForeArm
            {
              OFFSET -0.0001 24.6255 0.0000
              CHANNELS 3 Yrotation Xrotation Zrotation
              JOINT LeftHand
              {
                OFFSET 0.0000 27.1163 0.0000
                CHANNELS 3 Yrotation Xrotation Zrotation
                JOINT LeftHandIndex1
                {
                  OFFSET -2.4368 7.6819 0.0980
                  CHANNELS 3 Yrotation Xrotation Zrotation
                  JOINT LeftHandIndex2
                  {
                    OFFSET 0.0000 4.3581 0.0000
                    CHANNELS 3 Yrotation Xrotation Zrotation
                    JOINT LeftHandIndex3
                    {
                      OFFSET 0.0000 2.6812 0.0000
                      CHANNELS 3 Yrotation Xrotation Zrotation
                      End Site
                      {
                        OFFSET 0.0000 1.3566 0.0000
                      }
                    }
                  }
                }
                JOINT LeftHandMiddle1
                {
                  OFFSET -0.5185 7.7415 0.0980
                  CHANNELS 3 Yrotation Xrotation Zrotation
                  JOINT LeftHandMiddle2
                  {
                    OFFSET 0.0000 4.4741 0.0000
                    CHANNELS 3 Yrotation Xrotation Zrotation
                    JOINT LeftHandMiddle3
                    {
                      OFFSET 0.0000 2.9510 0.0000
                      CHANNELS 3 Yrotation Xrotation Zrotation
                      End Site
                      {
                        OFFSET 0.0000 1.4991 0.0000
                      }
                    }
                  }
                }
                JOINT LeftHandPinky1
                {
                  OFFSET 2.9845 6.6773 0.0980
                  CHANNELS 3 Yrotation Xrotation Zrotation
                  JOINT LeftHandPinky2
                  {
                    OFFSET 0.0000 3.3815 0.0000
                    CHANNELS 3 Yrotation Xrotation Zrotation
                    JOINT LeftHandPinky3
                    {
                      OFFSET 0.0000 2.1255 0.0000
                      CHANNELS 3 Yrotation Xrotation Zrotation
                      End Site
                      {
                        OFFSET 0.0000 1.1205 0.0000
                      }
                    }
                  }
                }
                JOINT LeftHandRing1
                {
                  OFFSET 1.3705 7.4277 0.0981
                  CHANNELS 3 Yrotation Xrotation Zrotation
                  JOINT LeftHandRing2
                  {
                    OFFSET 0.0000 4.1790 0.0000
                    CHANNELS 3 Yrotation Xrotation Zrotation
                    JOINT LeftHandRing3
                    {
                      OFFSET 0.0000 2.6951 0.0000
                      CHANNELS 3 Yrotation Xrotation Zrotation
                      End Site
                      {
                        OFFSET 0.0000 1.3500 0.0000
                      }
                    }
                  }
                }
                JOINT LeftHandThumb1
                {
                  OFFSET -2.6510 1.9781 0.0896
                  CHANNELS 3 Yrotation Xrotation Zrotation
                  JOINT LeftHandThumb2
                  {
                    OFFSET 0.0000 3.7696 0.0000
                    CHANNELS 3 Yrotation Xrotation Zrotation
                    JOINT LeftHandThumb3
                    {
                      OFFSET 0.0000 2.8611 0.0000
                      CHANNELS 3 Yrotation Xrotation Zrotation
                      End Site
                      {
                        OFFSET 0.0000 1.7295 0.0000
                      }
                    }
                  }
                }
              }
            }
          }
        }
        JOINT Neck
        {
          OFFSET 0.0000 17.0643 0.0000
          CHANNELS 3 Yrotation Xrotation Zrotation
          JOINT Head
          {
            OFFSET 0.0000 10.4129 0.0000
            CHANNELS 3 Yrotation Xrotation Zrotation
            End Site
            {
              OFFSET 0.0000 8.0220 0.0000
            }
          }
        }
        JOINT RightShoulder
        {
          OFFSET -6.6423 9.7323 0.0000
          CHANNELS 3 Yrotation Xrotation Zrotation
          JOINT RightArm
          {
            OFFSET 0.0000 12.6995 0.0000
            CHANNELS 3 Yrotation Xrotation Zrotation
            JOINT RightForeArm
            {
              OFFSET 0.0000 24.6255 0.0000
              CHANNELS 3 Yrotation Xrotation Zrotation
              JOINT RightHand
              {
                OFFSET -0.0001 27.1163 0.0000
                CHANNELS 3 Yrotation Xrotation Zrotation
                JOINT RightHandIndex1
                {
                  OFFSET 2.4368 7.6820 0.0980
                  CHANNELS 3 Yrotation Xrotation Zrotation
                  JOINT RightHandIndex2
                  {
                    OFFSET 0.0000 4.3581 0.0000
                    CHANNELS 3 Yrotation Xrotation Zrotation
                    JOINT RightHandIndex3
                    {
                      OFFSET 0.0000 2.6812 0.0000
                      CHANNELS 3 Yrotation Xrotation Zrotation
                      End Site
                      {
                        OFFSET 0.0000 1.3566 0.0000
                      }
                    }
                  }
                }
                JOINT RightHandMiddle1
                {
                  OFFSET 0.5185 7.7415 0.0980
                  CHANNELS 3 Yrotation Xrotation Zrotation
                  JOINT RightHandMiddle2
                  {
                    OFFSET 0.0000 4.4741 0.0000
                    CHANNELS 3 Yrotation Xrotation Zrotation
                    JOINT RightHandMiddle3
                    {
                      OFFSET 0.0000 2.9510 0.0000
                      CHANNELS 3 Yrotation Xrotation Zrotation
                      End Site
                      {
                        OFFSET 0.0000 1.4991 0.0000
                      }
                    }
                  }
                }
                JOINT RightHandPinky1
                {
                  OFFSET -2.9845 6.6773 0.0980
                  CHANNELS 3 Yrotation Xrotation Zrotation
                  JOINT RightHandPinky2
                  {
                    OFFSET 0.0000 3.3815 0.0000
                    CHANNELS 3 Yrotation Xrotation Zrotation
                    JOINT RightHandPinky3
                    {
                      OFFSET 0.0000 2.1255 0.0000
                      CHANNELS 3 Yrotation Xrotation Zrotation
                      End Site
                      {
                        OFFSET 0.0000 1.1205 0.0000
                      }
                    }
                  }
                }
                JOINT RightHandRing1
                {
                  OFFSET -1.3706 7.4277 0.0980
                  CHANNELS 3 Yrotation Xrotation Zrotation
                  JOINT RightHandRing2
                  {
                    OFFSET 0.0000 4.1790 0.0000
                    CHANNELS 3 Yrotation Xrotation Zrotation
                    JOINT RightHandRing3
                    {
                      OFFSET 0.0000 2.6951 0.0000
                      CHANNELS 3 Yrotation Xrotation Zrotation
                      End Site
                      {
                        OFFSET 0.0000 1.3500 0.0000
                      }
                    }
                  }
                }
                JOINT RightHandThumb1
                {
                  OFFSET 2.6510 1.9781 0.0896
                  CHANNELS 3 Yrotation Xrotation Zrotation
                  JOINT RightHandThumb2
                  {
                    OFFSET 0.0000 3.7695 0.0000
                    CHANNELS 3 Yrotation Xrotation Zrotation
                    JOINT RightHandThumb3
                    {
                      OFFSET 0.0000 2.8611 0.0000
                      CHANNELS 3 Yrotation Xrotation Zrotation
                      End Site
                      {
                        OFFSET 0.0000 1.7295 0.0000
                      }
                    }
                  }
                }
              }
            }
          }
        }
      }
    }
  }
  JOINT LeftUpLeg
  {
    OFFSET 7.6424 0.0000 0.0000
    CHANNELS 3 Yrotation Xrotation Zrotation
    JOINT LeftLeg
    {
      OFFSET 0.0000 40.7593 0.0000
      CHANNELS 3 Yrotation Xrotation Zrotation
      JOINT LeftFoot
      {
        OFFSET 0.0000 40.8537 0.0000
        CHANNELS 3 Yrotation Xrotation Zrotation
        JOINT LeftToeBase
        {
          OFFSET 0.0000 13.7494 0.0000
          CHANNELS 3 Yrotation Xrotation Zrotation
          End Site
          {
            OFFSET 0.0000 3.5000 0.0000
          }
        }
      }
    }
  }
  JOINT RightUpLeg
  {
    OFFSET -7.6424 0.0000 0.0000
    CHANNELS 3 Yrotation Xrotation Zrotation
    JOINT RightLeg
    {
      OFFSET 0.0000 40.7593 0.0000
      CHANNELS 3 Yrotation Xrotation Zrotation
      JOINT RightFoot
      {
        OFFSET 0.0000 40.8537 0.0000
        CHANNELS 3 Yrotation Xrotation Zrotation
        JOINT RightToeBase
        {
          OFFSET 0.0000 13.7494 0.0000
          CHANNELS 3 Yrotation Xrotation Zrotation
          End Site
          {
            OFFSET 0.0000 3.5000 0.0000
          }
        }
      }
    }
  }
}
MOTION
Frames: 8
Frame Time: 0.033333
0.2895 88.4734 -0.6284 1.4540 -0.2830 -0.1346 1.2550 0.7304 0.3609 1.2552 0.7306 0.3610 1.2587 0.7327 0.3620 101.6424 90.0000 0.0000 53.1839 83.7866 53.0971 -15.0404 1.9422 10.8246 -12.0126 -10.4731 15.7164 17.6793 47.9255 -5.8250 0.0009 30.8796 0.0018 0.0005 20.6129 0.0002 5.2234 51.3098 -16.5182 0.0000 33.4948 0.0002 0.0001 22.3654 0.0001 -26.2928 18.1000 -40.1507 -0.0003 20.2415 0.0003 0.0000 13.5030 -0.0006 -19.9937 34.5814 -36.6461 0.0000 27.5278 0.0000 0.0000 18.3706 -0.0002 51.5172 27.4589 44.3197 -4.3339 -2.7805 -33.3660 -1.0401 10.7859 -10.9821 0.1678 6.6682 0.6507 0.1678 6.6682 0.6507 -105.8694 90.0000 0.0000 -64.9088 71.0499 -65.3342 -53.5236 28.7872 -115.4551 -27.5216 -56.6162 -20.6854 7.6195 18.1700 23.2144 0.0000 28.8126 0.0000 0.0000 19.2304 0.0003 34.6892 39.2326 40.7890 0.0000 43.9828 -0.0001 0.0000 29.4029 -0.0001 78.7512 27.1520 73.0648 0.0000 37.0476 0.0001 -0.0001 24.7467 0.0002 62.1411 42.8218 61.9361 0.0000 51.2813 -0.0001 0.0000 34.3156 -0.0001 -24.8404 34.0833 -37.0953 -0.2981 -9.5358 20.1387 0.1111 3.5638 3.5708 0.8013 -2.7286 179.1360 0.0268 -8.2558 0.0834 -1.7330 69.9707 1.3683 0.0000 25.3510 0.0000 -0.7803 -2.0868 -179.1413 0.0210 -8.3673 -0.0828 5.7633 70.3982 -0.3210 0.0000 26.1408 -0.0001
0.3219 88.4743 -0.6163 1.2069 -0.2659 -0.1270 1.1981 0.7321 0.3752 1.1983 0.7323 0.3752 1.2017 0.7344 0.3763 101.6804 90.0000 0.0000 55.0720 83.4974 55.2351 -14.9822 2.1914 11.1184 -11.8809 -11.2163 16.1600 17.6857 47.5281 -5.9785 0.0000 30.9094 0.0000 0.0000 20.6329 -0.0008 5.5955 50.9235 -16.3596 0.0000 33.2423 0.0001 0.0001 22.1963 0.0001 -26.4846 18.0069 -40.3484 -0.0002 20.5388 0.0004 0.0000 13.7016 -0.0006 -19.7712 34.4170 -36.5649 0.0000 27.7399 0.0000 0.0000 18.5125 -0.0002 51.1721 27.6681 44.0337 -4.1212 -2.8315 -32.7102 -0.9874 10.5153 -10.6969 0.2473 6.5965 0.4103 0.2473 6.5965 0.4103 -106.1924 90.0000 0.0000 -61.1303 73.5316 -60.1523 -51.4712 28.8150 -112.2837 -21.7807 -53.5847 -29.5400 6.7453 14.8644 21.4433 0.0000 30.2735 -0.0001 0.0000 20.2079 0.0002 30.4791 37.7376 34.9488 0.0000 44.7104 -0.0001 0.0000 29.8920 -0.0001 73.3319 25.1160 68.7620 0.0000 36.7667 0.0000 -0.0001 24.5583 0.0002 54.7021 41.2687 55.2864 0.0000 52.4396 -0.0001 0.0000 35.0969 -0.0001 -24.9641 31.7125 -37.9453 -0.2657 -10.5366 23.0828 0.1574 4.2396 4.2512 0.9760 -2.6780 179.1055 0.0251 -8.1817 0.0827 -1.7398 69.9605 1.4340 0.0000 25.3510 0.0000 -0.5584 -2.1274 -179.1712 0.0206 -8.3852 -0.0800 5.7975 70.3929 -0.2626 0.0000 26.1376 -0.0001
0.3560 88.4734 -0.5936 0.9091 -0.2533 -0.1181 1.1087 0.7319 0.3820 1.1089 0.7321 0.3821 1.1121 0.7341 0.3832 101.7671 90.0000 0.0000 56.7342 83.4405 57.0358 -15.4608 2.4773 11.1986 -12.0185 -11.5807 17.6248 17.2018 47.2405 -6.5186 0.0000 31.0561 0.0001 0.0000 20.7311 -0.0008 5.2655 50.3073 -16.8509 0.0000 33.5127 0.0001 0.0001 22.3774 0.0001 -26.9516 17.8372 -40.6225 -0.0003 20.7325 0.0003 0.0000 13.8309 -0.0006 -19.8545 34.0819 -36.7003 0.0000 28.0276 0.0000 0.0000 18.7049 -0.0002 50.6112 28.0599 43.5971 -3.8264 -2.7031 -31.5643 -0.9127 10.1186 -10.2800 0.4348 6.5712 0.1253 0.4348 6.5712 0.1253 -106.3727 90.0000 0.0000 -54.5444 75.8858 -52.5720 -48.1303 28.5664 -107.5346 -15.9371 -50.8529 -37.9047 5.8207 12.7840 20.4267 0.0000 32.4850 -0.0001 0.0000 21.6885 0.0002 26.5286 36.9901 31.0747 0.0000 47.6359 -0.0001 0.0000 31.8604 -0.0001 68.0845 24.2047 64.9273 0.0000 39.4227 0.0001 -0.0001 26.3400 0.0002 49.3095 40.6361 50.6879 0.0000 54.9412 -0.0001 0.0000 36.7856 -0.0001 -25.8547 29.9483 -38.3801 -0.6117 -13.1137 27.2959 0.2014 4.7933 4.8101 1.2166 -2.6248 179.0707 0.0229 -8.1360 0.0870 -1.7308 69.9744 1.5001 0.0000 25.3510 0.0000 -0.3093 -2.1802 -179.2024 0.0196 -8.4422 -0.0804 5.8299 70.4054 -0.1855 0.0000 26.1441 -0.0001
0.3904 88.4685 -0.5555 0.5409 -0.2480 -0.1189 1.0288 0.7420 0.3827 1.0290 0.7421 0.3827 1.0319 0.7442 0.3839 101.8179 90.0000 0.0000 57.8378 83.4325 58.2767 -16.5723 3.0937 11.1179 -12.4895 -11.7321 18.7780 16.7920 47.1468 -6.9259 0.0000 31.3000 0.0001 0.0000 20.8944 -0.0008 4.8703 50.0126 -17.2745 0.0000 33.7814 0.0001 0.0001 22.5574 0.0001 -27.1421 17.9358 -40.7255 -0.0003 20.7165 0.0004 0.0000 13.8202 -0.0006 -19.9816 33.9376 -36.8239 0.0000 28.0908 0.0000 0.0000 18.7472 -0.0002 50.5083 28.1567 43.6818 -3.9287 -2.6850 -31.9035 -0.9379 10.2543 -10.4224 0.6479 6.5375 -0.1385 0.6479 6.5375 -0.1385 -106.4727 90.0000 0.0000 -47.0043 77.6090 -44.0804 -43.7620 28.3018 -101.9427 -11.3287 -49.6724 -43.6281 5.0263 12.2287 19.6904 0.0000 33.9741 0.0000 0.0000 22.6859 0.0002 24.4099 36.8367 29.3085 0.0000 48.9048 -0.0001 0.0000 32.7149 -0.0001 65.1377 23.6829 62.6652 0.0000 41.6217 0.0001 -0.0001 27.8164 0.0002 46.6333 40.4721 48.2111 0.0000 56.1108 -0.0001 0.0000 37.5758 -0.0001 -26.2806 28.8295 -38.0599 -0.6039 -13.7008 28.9264 0.2341 5.1647 5.1858 1.4954 -2.5877 179.0460 0.0201 -8.1702 0.0895 -1.7435 70.0464 1.5746 0.0000 25.3510 0.0000 -0.0124 -2.2434 -179.2230 0.0181 -8.5440 -0.0832 5.8380 70.4501 -0.1128 0.0000 26.1364 -0.0001
0.4228 88.4592 -0.5069 0.1056 -0.2554 -0.1173 0.9696 0.7490 0.3774 0.9697 0.7492 0.3774 0.9725 0.7513 0.3785 101.8024 90.0000 0.0000 58.1438 83.5215 58.6597 -18.2704 4.1163 10.8916 -14.5108 -11.0127 20.1483 16.2347 47.1038 -7.3493 0.0001 31.4810 0.0002 0.0000 21.0156 -0.0007 4.2367 49.7612 -17.8020 0.0000 34.0945 0.0001 0.0001 22.7672 0.0001 -27.8819 18.0428 -40.8570 -0.0003 20.0973 0.0004 0.0000 13.4067 -0.0006 -20.4545 33.7087 -37.0461 0.0000 27.7926 0.0000 0.0000 18.5477 -0.0001 49.9193 28.5922 43.4535 -3.9032 -2.3424 -31.4698 -0.9283 10.2028 -10.3684 0.8591 6.5081 -0.3653 0.8591 6.5081 -0.3653 -106.6100 90.0000 0.0000 -39.2390 78.9439 -35.5048 -38.3542 28.1097 -95.0573 -7.8228 -48.9115 -46.8668 4.4873 12.6592 18.8756 -0.0001 33.8869 -0.0001 0.0000 22.6275 0.0002 22.5640 37.3322 27.6348 0.0000 48.5973 -0.0001 0.0000 32.5077 0.0000 63.2170 24.2389 60.6743 0.0000 41.6768 0.0000 -0.0001 27.8534 0.0002 44.4261 40.8672 45.6989 0.0000 55.7359 -0.0001 0.0000 37.3225 -0.0001 -27.4423 27.6595 -37.9216 -0.4806 -14.0209 30.5101 0.2782 5.6278 5.6551 1.7949 -2.5643 179.0218 0.0177 -8.2824 0.0880 -1.7944 70.1681 1.6539 0.0000 25.3510 0.0000 0.3735 -2.3290 -179.2463 0.0162 -8.7170 -0.0813 5.8748 70.5299 -0.0309 0.0000 26.1383 -0.0001
0.4518 88.4467 -0.4486 -0.4144 -0.2644 -0.1191 0.9069 0.7336 0.3712 0.9070 0.7338 0.3713 0.9096 0.7359 0.3724 101.8299 90.0000 0.0000 58.4011 83.6416 58.8912 -20.7945 5.5508 10.4556 -15.8841 -10.3286 21.3229 15.9112 47.0430 -7.5026 0.0000 31.7147 0.0000 0.0000 21.1720 -0.0008 3.7670 49.6268 -18.0576 0.0000 34.2817 0.0001 0.0001 22.8926 0.0001 -28.4059 18.2249 -40.8778 -0.0002 19.4183 0.0004 0.0000 12.9533 -0.0006 -20.8015 33.5977 -37.1371 0.0000 27.6368 0.0000 0.0000 18.4435 -0.0002 49.7689 28.7371 43.5839 -4.0177 -2.3183 -31.8436 -0.9566 10.3536 -10.5267 1.1218 6.5012 -0.5698 1.1218 6.5012 -0.5698 -106.5853 90.0000 0.0000 -34.0260 79.6243 -29.1544 -31.9864 27.6386 -87.2096 -4.2280 -45.9905 -50.4830 4.1288 12.8626 18.3169 -0.0001 33.4951 -0.0001 0.0000 22.3650 0.0002 20.8825 37.6122 26.2134 0.0000 48.4660 -0.0001 0.0000 32.4193 -0.0001 61.7453 24.9764 58.9758 0.0000 41.4390 0.0000 -0.0001 27.6937 0.0002 42.5779 41.0340 43.6926 0.0000 55.4322 -0.0001 0.0000 37.1173 -0.0001 -28.1718 26.9792 -37.7979 -0.2447 -14.0328 31.8505 0.3302 6.1274 6.1627 2.1470 -2.5571 179.0047 0.0149 -8.4584 0.0849 -1.8863 70.3358 1.7248 0.0000 25.3510 0.0000 0.8300 -2.4357 -179.2636 0.0136 -8.9337 -0.0804 5.9065 70.6323 0.0580 0.0000 26.1381 -0.0001
0.4777 88.4320 -0.3834 -0.9911 -0.2764 -0.1246 0.8830 0.7245 0.3590 0.8831 0.7246 0.3591 0.8856 0.7267 0.3601 101.8604 90.0000 0.0000 59.1746 83.7067 59.7298 -23.3688 6.7926 9.7762 -19.1298 -8.5620 22.8229 15.5231 46.9826 -7.6028 0.0000 31.9451 0.0000 0.0000 21.3263 -0.0008 3.2666 49.4462 -18.2110 -0.0005 34.5803 -0.0009 -0.0002 23.0927 -0.0005 -28.9987 18.4174 -40.8673 -0.0002 18.6968 0.0004 0.0000 12.4715 -0.0006 -21.2616 33.5241 -37.2366 0.0000 27.3033 0.0000 0.0000 18.2204 -0.0002 49.7249 28.8238 43.8685 -4.1994 -2.3153 -32.4594 -1.0019 10.5907 -10.7763 1.3786 6.4487 -0.7707 1.3786 6.4487 -0.7707 -106.5568 90.0000 0.0000 -31.7686 80.0259 -26.1221 -25.1503 27.1834 -78.9314 -2.9292 -44.2610 -47.9402 3.5049 13.1061 17.6932 0.0000 32.2981 0.0000 0.0000 21.5633 0.0003 18.6928 37.6383 24.5081 0.0000 47.3371 -0.0001 0.0000 31.6592 -0.0001 59.5995 26.0188 56.0652 0.0000 40.8153 0.0001 -0.0001 27.2749 0.0002 40.1024 40.8844 41.0565 0.0000 54.2129 -0.0001 0.0000 36.2938 -0.0001 -29.3715 26.0068 -37.8032 0.7685 -12.5868 33.6293 0.4798 7.3735 7.4353 2.5447 -2.5488 178.9937 0.0121 -8.6571 0.0817 -1.9550 70.5263 1.8314 0.0000 25.9303 0.0000 1.3270 -2.5375 -179.2737 0.0119 -9.1461 -0.0821 5.9033 70.7380 0.1243 0.0000 26.1363 -0.0001
0.4990 88.4179 -0.3162 -1.5884 -0.2928 -0.1431 0.8953 0.7089 0.3493 0.8954 0.7090 0.3493 0.8980 0.7111 0.3504 101.8592 90.0000 0.0000 60.8576 83.7715 61.4256 -25.5070 7.6222 9.1172 -22.0675 -6.8303 24.3826 15.2182 46.9113 -7.6479 0.0000 31.9481 0.0000 0.0000 21.3283 -0.0008 2.8735 49.3062 -18.2915 0.0000 34.7402 0.0000 0.0001 23.1998 0.0000 -29.4984 18.5300 -40.9138 -0.0002 18.2888 0.0005 0.0000 12.1991 -0.0005 -21.6168 33.4810 -37.3075 0.0000 26.9348 0.0000 0.0000 17.9740 -0.0002 49.6664 28.9123 44.0651 -4.2664 -2.3113 -32.6796 -1.0187 10.6768 -10.8670 1.6039 6.3884 -0.9525 1.6039 6.3884 -0.9525 -106.4921 90.0000 0.0000 -30.8048 80.4850 -24.9504 -17.7351 26.2420 -69.4040 -0.8843 -40.5923 -47.1791 2.8759 13.0237 17.3645 0.0000 32.3309 0.0000 0.0000 21.5853 0.0003 17.1243 37.2028 23.2431 0.0000 47.0064 -0.0001 0.0000 31.4366 -0.0001 57.7296 26.7423 53.8670 0.0000 40.4543 0.0000 -0.0001 27.0324 0.0002 38.1924 40.5317 39.1368 0.0000 53.5649 -0.0001 0.0000 35.8562 -0.0001 -30.4276 25.1776 -38.0028 2.0473 -10.3301 34.8712 0.6736 8.7171 8.8197 2.9714 -2.5350 178.9983 0.0078 -8.8589 0.0801 -2.0154 70.7223 1.9364 0.0000 25.9307 0.0000 1.8480 -2.6145 -179.2690 0.0111 -9.3157 -0.0827 5.9252 70.8253 0.2151 0.0000 26.1247 -0.0001
